<svg xmlns="http://www.w3.org/2000/svg" version="1.1" xmlns:xlink="http://www.w3.org/1999/xlink" xmlns:svgjs="http://svgjs.com/svgjs" width="512" height="512"><svg id="SvgjsSvg1007" data-name="Layer 1" xmlns="http://www.w3.org/2000/svg" viewBox="0 0 512 512">
  <defs>
    <style>
      .cls-1, .cls-2, .cls-3, .cls-4 {
        stroke-width: 0px;
      }

      .cls-2 {
        fill: #fff;
      }

      .cls-3 {
        fill: #0047a0;
      }

      .cls-4 {
        fill: #cd2e3a;
      }
    </style>
  </defs>
  <rect class="cls-1" width="512" height="512" rx="75" ry="75"></rect>
  <g id="SvgjsG1006">
    <path id="SvgjsPath1005" class="cls-2" d="m137.33,240v-103.85h53.48v73.19h38.07s-3.7,7.7-4.44,12.89c0,0-56.74-12-87.11,17.78Z"></path>
    <path id="SvgjsPath1004" class="cls-2" d="m244,183.59v-47.44h53.56v8.33s-31.44,9-53.56,39.11Z"></path>
    <path id="SvgjsPath1003" class="cls-2" d="m137.63,293.33v82.81h53.33v-73.48h30.37s-7.85-5.63-20.3-5.93-18.96,4.44-18.96,4.44c0,0-6.37,4.59-20,3.7s-24.44-11.56-24.44-11.56Z"></path>
    <path id="SvgjsPath1002" class="cls-2" d="m244.15,329.19v47.11h53.33v-8.44s-28.3-8.3-53.33-38.67Z"></path>
    <path id="SvgjsPath1001" class="cls-4" d="m382.89,159.63s20.78,8.07,14,33.19c-10.78,25.44-36.56,15.11-36.56,15.11,0,0-26.67-13.33-51.22,3.33-25,15.78-24.44,43.22-24.44,43.22,0,0-22.33-22.67-48.89-29.44,0,0,10.89-42.89,53.56-64,50.89-25.11,93.56-1.41,93.56-1.41Z"></path>
    <path id="SvgjsPath1000" class="cls-3" d="m382.96,353.04s20.89-10.07,13.63-33.48c-10.96-26.07-36.15-14.81-36.15-14.81,0,0-21.93,12.52-48.96-2.15-12.96-6.37-22.15-23.56-22.15-23.56,0,0-20.89-37.41-71.7-46.15,0,0-32.74-6.41-63.52,9.37-21.89,10.78-13.22,34.67-13.22,34.67,0,0,9.11,23.11,35.67,13.56,22-11.33,44.56-1.44,44.56-1.44,0,0,16.67,6.67,24,20.44,0,0,12.44,19.93,25.44,29.22,0,0,20.22,20.11,56.67,23.67,36.78,2.56,55.74-9.33,55.74-9.33Z"></path>
  </g>
  <path class="cls-2" d="m256,22.81C127.22,22.81,22.81,127.22,22.81,256s104.4,233.19,233.19,233.19,233.19-104.4,233.19-233.19S384.78,22.81,256,22.81Zm0,434.37c-111.11,0-201.19-90.07-201.19-201.19S144.89,54.81,256,54.81s201.19,90.07,201.19,201.19-90.07,201.19-201.19,201.19Z"></path>
</svg><style>@media (prefers-color-scheme: light) { :root { filter: none; } }
</style></svg>